<svg width="42" height="42" viewBox="0 0 42 42" fill="none" xmlns="http://www.w3.org/2000/svg">
<path d="M40.9969 20.9984C40.9969 23.2826 34.4703 24.2482 33.6455 26.2355C32.7925 28.2947 36.6916 33.5881 35.1389 35.1411C33.5892 36.691 28.2936 32.7913 26.2347 33.6475C24.2508 34.4724 23.2823 41 20.9984 41C18.7146 41 17.7492 34.4724 15.7622 33.6475C13.7751 32.8225 8.41076 36.6941 6.858 35.1411C5.30524 33.5881 9.20745 28.2947 8.3514 26.2355C7.5266 24.2513 1 23.2826 1 20.9984C1 18.7142 7.5266 17.7487 8.3514 15.7613C9.17621 13.774 5.30524 8.4088 6.858 6.85579C8.41076 5.30279 13.7033 9.20561 15.7622 8.34943C17.7523 7.52762 18.7177 1 21.0016 1C23.2854 1 24.2508 7.52762 26.2378 8.35255C28.2249 9.17749 33.5892 5.30591 35.142 6.85892C36.6948 8.41192 32.7925 13.7053 33.6486 15.7645C34.4734 17.7487 41 18.7174 41 21.0016L40.9969 20.9984Z" stroke="#304849" stroke-width="1.5"/>
<path d="M33.4298 20.9985C33.4298 22.5265 30.871 23.5326 30.3211 24.8575C29.7494 26.2324 30.8273 28.751 29.79 29.7884C28.7528 30.8258 26.2377 29.7478 24.8599 30.3196C23.4821 30.8914 22.5261 33.4287 21.0015 33.4287C19.4768 33.4287 18.4677 30.8696 17.143 30.3196C15.8183 29.7696 13.2501 30.8258 12.2129 29.7884C11.1756 28.751 12.2535 26.2355 11.6818 24.8575C11.11 23.4795 8.57312 22.5233 8.57312 20.9985C8.57312 19.4736 11.1319 18.4643 11.6818 17.1394C12.2316 15.8145 11.1756 13.2459 12.2129 12.2085C13.2501 11.1711 15.7652 12.2491 17.143 11.6773C18.5208 11.1055 19.4768 8.56818 21.0015 8.56818C22.5261 8.56818 23.5352 11.1274 24.8599 11.6773C26.1846 12.2273 28.7528 11.1711 29.79 12.2085C30.8273 13.2459 29.7494 15.7614 30.3211 17.1394C30.8929 18.5174 33.4298 19.4736 33.4298 20.9985V20.9985Z" stroke="#304849" stroke-width="1.5"/>
<path d="M27.9531 20.9984C27.9531 21.9421 27.7656 22.8389 27.4251 23.6607C27.0845 24.4825 26.5565 25.2762 25.916 25.9168C25.2756 26.5574 24.5101 27.073 23.6603 27.4261C22.8105 27.7792 21.942 27.9541 20.9984 27.9541C20.0549 27.9541 19.1583 27.7667 18.3366 27.4261C17.5149 27.0855 16.7213 26.5574 16.0808 25.9168C15.4404 25.2762 14.9249 24.5107 14.5718 23.6607C14.2188 22.8108 14.0438 21.9421 14.0438 20.9984C14.0438 20.0548 14.2313 19.1579 14.5718 18.3361C14.9124 17.5143 15.4404 16.7206 16.0808 16.0801C16.7213 15.4395 17.4868 14.9239 18.3366 14.5708C19.1864 14.2177 20.0549 14.0427 20.9984 14.0427C21.942 14.0427 22.8386 14.2302 23.6603 14.5708C24.482 14.9114 25.2756 15.4395 25.916 16.0801C26.5565 16.7206 27.072 17.4862 27.4251 18.3361C27.7781 19.1861 27.9531 20.0548 27.9531 20.9984Z" stroke="#304849" stroke-width="1.5"/>
</svg>
