<?xml version="1.0" standalone="no"?>
<!DOCTYPE svg PUBLIC "-//W3C//DTD SVG 20010904//EN"
 "http://www.w3.org/TR/2001/REC-SVG-20010904/DTD/svg10.dtd">
<svg version="1.0" xmlns="http://www.w3.org/2000/svg"
 width="1280.000000pt" height="1280.000000pt" viewBox="0 0 1280.000000 1280.000000"
 preserveAspectRatio="xMidYMid meet">
<metadata>
Created by potrace 1.14, written by Peter Selinger 2001-2017
</metadata>
<g transform="translate(0.000000,1280.000000) scale(0.100000,-0.100000)"
fill="#000000" stroke="none">
<path d="M6288 11344 c-75 -18 -122 -42 -195 -101 -180 -147 -291 -330 -554
-921 -201 -452 -308 -635 -418 -714 l-46 -33 -125 1 c-105 0 -141 4 -225 28
-146 41 -307 96 -515 176 -260 100 -428 159 -555 195 -296 84 -504 87 -657 9
-66 -33 -149 -116 -182 -182 -75 -147 -75 -368 0 -636 40 -144 97 -307 251
-716 100 -264 153 -457 160 -585 7 -121 -5 -162 -67 -224 -105 -105 -272 -197
-718 -395 -319 -142 -431 -197 -552 -269 -278 -166 -409 -316 -442 -505 -34
-201 67 -388 302 -558 139 -101 322 -195 725 -374 399 -177 583 -279 684 -380
65 -65 75 -98 68 -229 -6 -140 -42 -274 -152 -571 -47 -129 -115 -313 -150
-408 -211 -570 -220 -869 -31 -1058 93 -92 209 -134 376 -134 199 0 412 56
865 227 461 175 645 230 795 239 127 8 165 -3 230 -68 103 -103 202 -282 380
-683 233 -526 340 -714 490 -863 190 -189 430 -224 627 -92 199 132 333 344
603 955 177 400 277 580 380 683 67 67 97 76 234 69 164 -9 277 -42 770 -226
416 -156 543 -196 711 -225 480 -84 745 167 674 637 -24 161 -78 340 -200 663
-212 565 -247 681 -256 850 -7 137 2 168 70 236 105 105 261 190 747 407 415
186 597 286 744 411 256 216 296 493 105 732 -138 173 -340 293 -914 548 -430
190 -650 319 -721 421 -28 42 -29 45 -29 168 1 180 32 285 253 871 159 422
212 624 212 815 0 163 -42 278 -134 371 -173 172 -456 179 -921 22 -103 -35
-291 -104 -535 -195 -266 -101 -459 -153 -585 -160 -121 -7 -163 5 -224 67
-105 105 -202 281 -401 730 -175 395 -253 543 -365 695 -177 240 -371 332
-587 279z m170 -319 c120 -51 265 -278 470 -740 162 -366 224 -493 304 -626
119 -197 215 -298 343 -359 89 -43 159 -53 300 -47 202 10 358 56 920 268 399
150 580 199 735 199 156 -1 198 -51 187 -228 -9 -154 -58 -320 -223 -753 -182
-478 -233 -660 -241 -859 -6 -147 5 -221 47 -307 91 -186 307 -342 745 -538
33 -15 146 -65 250 -112 455 -203 666 -336 724 -456 26 -53 26 -80 2 -132 -55
-122 -278 -260 -776 -480 -273 -121 -473 -218 -589 -287 -196 -117 -329 -253
-377 -385 -22 -62 -24 -83 -23 -228 0 -138 4 -174 27 -267 25 -100 129 -419
175 -533 36 -91 150 -399 170 -460 121 -366 122 -568 1 -604 -145 -43 -398 21
-984 252 -130 50 -431 149 -530 173 -146 35 -350 44 -445 20 -169 -44 -294
-156 -437 -393 -76 -126 -143 -264 -289 -590 -191 -428 -285 -596 -398 -709
-108 -107 -180 -109 -287 -7 -104 99 -217 296 -382 668 -170 381 -229 503
-309 636 -119 197 -215 298 -343 359 -89 43 -159 53 -300 47 -202 -10 -358
-56 -920 -268 -399 -150 -580 -199 -735 -199 -156 1 -198 51 -187 228 9 154
58 320 223 753 182 478 233 660 241 859 6 147 -5 221 -47 307 -80 162 -255
302 -574 457 -119 58 -133 64 -421 193 -454 203 -666 336 -724 456 -26 53 -26
80 -2 132 53 117 284 265 691 443 63 27 156 69 205 91 50 23 117 54 150 69
299 133 528 288 621 417 70 99 95 172 102 291 11 222 -38 408 -269 1019 -150
398 -199 580 -199 735 0 59 5 86 23 120 27 55 60 69 167 69 144 2 314 -44 685
-184 448 -169 558 -207 740 -252 97 -25 129 -28 270 -28 151 0 164 2 223 27
235 100 377 305 669 968 113 257 216 461 281 562 94 142 191 227 260 228 12 0
39 -7 60 -15z"/>
<path d="M6316 9289 c-74 -15 -189 -72 -260 -128 -74 -59 -145 -133 -282 -297
-115 -136 -208 -225 -264 -254 -68 -35 -169 -43 -357 -31 -326 23 -369 24
-469 11 -257 -32 -402 -154 -462 -389 -19 -77 -22 -311 -5 -561 12 -179 4
-290 -25 -347 -31 -59 -100 -132 -240 -250 -301 -252 -401 -380 -438 -555 -31
-144 11 -287 127 -433 60 -76 119 -133 289 -277 165 -140 235 -216 269 -288
23 -51 25 -66 25 -195 0 -77 -6 -214 -14 -304 -32 -405 43 -613 264 -721 149
-73 240 -80 711 -51 150 9 268 0 316 -24 72 -37 143 -108 303 -301 89 -106
239 -250 312 -297 167 -108 320 -121 492 -41 126 58 216 139 418 380 127 150
213 230 283 262 49 22 69 26 176 26 66 1 211 -5 322 -13 295 -21 436 0 568 84
182 115 244 321 214 701 -7 93 -13 230 -13 304 0 125 2 139 27 193 30 65 124
164 272 287 266 221 376 362 411 530 31 147 -11 288 -127 435 -60 76 -119 133
-289 277 -165 140 -235 216 -269 288 -23 51 -25 66 -25 195 0 77 6 214 14 304
32 405 -43 613 -264 721 -149 73 -240 80 -711 51 -150 -9 -268 0 -316 24 -72
37 -138 102 -304 301 -161 193 -317 321 -441 363 -75 25 -173 33 -238 20z
m174 -339 c60 -31 136 -106 284 -279 79 -92 174 -195 212 -230 175 -160 321
-199 664 -178 230 15 448 14 497 -1 55 -17 98 -59 114 -113 17 -57 18 -230 1
-480 -20 -304 4 -440 102 -587 48 -73 180 -202 395 -389 131 -114 205 -205
217 -268 16 -88 -57 -186 -286 -382 -360 -308 -430 -425 -434 -723 0 -74 5
-225 13 -335 21 -302 2 -387 -94 -435 -46 -23 -62 -25 -185 -25 -74 0 -220 6
-325 13 -296 20 -436 -4 -582 -101 -77 -52 -206 -182 -372 -376 -164 -192
-260 -256 -348 -232 -84 23 -151 83 -338 301 -78 91 -173 194 -211 229 -175
160 -321 199 -664 177 -85 -5 -227 -10 -315 -10 -149 -1 -163 1 -208 23 -59
29 -81 63 -98 149 -12 66 -11 104 11 454 18 277 -9 423 -104 566 -48 73 -180
202 -395 389 -131 114 -205 205 -217 268 -16 88 57 186 287 382 367 314 430
423 430 743 0 85 -5 209 -10 275 -14 163 -13 279 3 347 29 126 76 152 276 153
74 0 221 -6 325 -13 296 -20 436 4 582 101 77 52 206 182 371 375 193 226 283
274 402 212z"/>
<path d="M6195 7859 c-87 -12 -235 -50 -323 -85 -511 -203 -866 -658 -932
-1194 -90 -740 389 -1434 1115 -1610 186 -45 455 -51 630 -15 514 108 933 472
1104 960 287 815 -202 1712 -1044 1915 -162 39 -380 50 -550 29z m471 -337
c224 -59 372 -141 533 -296 146 -142 231 -277 295 -469 47 -142 60 -249 53
-417 -13 -282 -119 -527 -317 -734 -145 -151 -287 -240 -491 -306 -123 -41
-238 -54 -399 -47 -282 13 -527 119 -734 317 -149 143 -235 278 -300 471 -85
255 -73 548 32 806 81 198 275 424 463 538 108 66 297 137 411 154 108 17 361
7 454 -17z"/>
</g>
</svg>
