<svg width="552" height="527" viewBox="0 0 552 527" fill="none" xmlns="http://www.w3.org/2000/svg">
<path d="M550.96 340.208V346.44M1.02 234.35V243.387M550.96 386.179C550.78 386.321 550.58 386.463 550.41 386.611C538.851 396.419 544.821 417.209 550.96 438.122M23.4576 1.89558C67.2728 11.7222 120.257 32.1908 151.064 26.0144C165.482 23.1239 178.301 13.1922 190.699 1M550.93 19.7577C510.564 14.0013 426.904 59.3731 387.538 51.4797C365.58 47.0759 348.212 22.7162 329.854 1.00618M207.287 1.00618C191.789 18.6027 176.241 35.0443 157.763 38.7501C121.907 45.9333 52.9143 13.291 7.74926 8.64638M1.02 220.546C32.0366 234.845 88.5105 251.879 88.5105 263.491C88.5105 275.102 32.0366 292.143 1.02 306.441M1.02 198.527C37.496 195.946 112.448 205.482 124.267 195.445C139.605 182.426 72.9421 118.302 94.0099 108.828C114.878 99.4456 192.949 158.344 218.016 153.316C242.204 148.468 249.173 72.3065 275.98 72.3065C302.787 72.3065 309.756 148.468 333.944 153.316C359.011 158.344 437.082 99.4456 457.95 108.828C479.028 118.302 412.355 182.426 427.693 195.445C439.512 205.476 514.464 195.946 550.94 198.527M1.02 165.471C17.5082 163.767 30.7768 161.08 36.6261 156.114C58.6537 137.418 0.0801003 68.298 30.3468 54.6914C60.3135 41.2207 148.544 96.8824 184.54 89.6622C219.276 82.6952 237.494 5.39142 275.99 5.39142C314.486 5.39142 332.704 82.6952 367.44 89.6622C403.436 96.8824 491.676 41.2207 521.633 54.6914C551.9 68.298 493.326 137.418 515.354 156.114C521.203 161.08 534.472 163.767 550.96 165.471M1.02 192.586C40.4457 192.129 95.9196 196.767 106.738 187.577C123.417 173.42 58.3637 108.296 81.2812 98.0003C103.969 87.8031 184.07 146.053 211.327 140.587C237.624 135.312 246.843 58.9223 275.99 58.9223C305.137 58.9223 314.356 135.312 340.653 140.587C367.91 146.053 448.011 87.8031 470.699 98.0003C493.616 108.303 428.563 173.427 445.242 187.577C456.06 196.761 511.534 192.129 550.96 192.586M1.02 243.387C14.1386 250.613 23.5175 257.5 23.5175 263.497C23.5175 269.494 14.1386 276.387 1.02 283.607M1.02 234.35C24.2375 244.826 45.1752 255.165 45.1752 263.497C45.1752 271.829 24.2275 282.168 1.02 292.643M528.522 1.89558C484.707 11.7222 431.723 32.1908 400.916 26.0144C386.498 23.1239 373.679 13.1922 361.281 1M496.666 1C462.94 10.1843 429.393 19.0289 406.956 14.5325C397.267 12.5869 388.248 7.63963 379.599 1M329.834 525.994C348.192 504.284 365.56 479.924 387.518 475.52C426.884 467.627 510.544 512.993 550.91 507.242M172.371 1C163.722 7.63963 154.713 12.5869 145.014 14.5325C122.577 19.0289 89.0304 10.1843 55.3041 1M1.02 227.149C31.0667 239.934 66.8428 253.429 66.8428 263.491C66.8428 273.552 31.0667 287.054 1.02 299.839M1.02 180.554C32.4466 180.048 62.9132 179.294 71.6823 171.845C91.0302 155.422 29.2269 88.2972 55.814 76.3459C82.1411 64.5119 166.312 121.471 197.939 115.127C228.455 109.007 242.174 32.1599 276 32.1599C309.826 32.1599 323.545 109.007 354.061 115.127C385.688 121.471 469.859 64.5119 496.186 76.3459C522.773 88.2972 460.97 155.422 480.318 171.845C489.097 179.294 519.553 180.048 550.98 180.554M550.98 35.2914C549.84 34.4452 548.57 33.6855 547.12 33.037C513.514 17.9295 421.214 72.3003 380.849 64.2031C355.571 59.1323 337.123 24.6124 315.496 1M1.02 186.786C37.816 186.656 79.3514 188.083 89.2104 179.714C107.218 164.427 43.7953 98.303 68.5426 87.1731C93.05 76.1544 175.181 133.762 204.628 127.857C233.035 122.162 244.503 45.5442 275.99 45.5442C307.477 45.5442 318.945 122.162 347.352 127.857C376.789 133.762 458.93 76.1544 483.437 87.1731C508.185 98.2968 444.762 164.421 462.77 179.714C472.629 188.083 514.164 186.663 550.96 186.786M299.467 1C326.195 21.6292 345.072 71.1083 374.139 76.9388C412.325 84.5975 502.595 29.5782 534.372 43.8704C566.468 58.2984 509.525 128.425 532.882 148.251C536.582 151.389 542.901 153.718 550.96 155.521M544.231 8.64638C499.066 13.291 430.073 45.9333 394.227 38.744C375.759 35.0381 360.201 18.5966 344.702 1M550.96 292.643C527.743 282.168 506.805 271.829 506.805 263.497C506.805 255.165 527.753 244.826 550.96 234.35M1.02 491.696C2.15987 492.542 3.42974 493.302 4.87958 493.951C38.4859 509.058 130.786 454.687 171.151 462.785C196.429 467.855 214.877 502.375 236.504 525.988M1.02 155.521C9.07912 153.718 15.3984 151.389 19.098 148.251C42.4555 128.425 -14.4883 58.2984 17.6082 43.8704C49.3947 29.5844 139.655 84.5975 177.841 76.9388C206.908 71.1083 225.785 21.6353 252.513 1M7.74926 518.347C52.9143 513.703 121.907 481.061 157.753 488.25C176.221 491.956 191.779 508.397 207.278 525.994M1.05999 507.236C41.4256 512.992 125.086 467.621 164.452 475.514C186.41 479.918 203.778 504.278 222.136 525.988M550.96 299.833C520.913 287.048 485.137 273.552 485.137 263.491C485.137 253.429 520.913 239.928 550.96 227.149M550.96 306.441C519.943 292.143 463.47 275.109 463.47 263.497C463.47 251.885 519.933 234.845 550.96 220.552M236.494 1C214.867 24.6185 196.419 59.1384 171.141 64.2031C130.776 72.3003 38.4759 17.9295 4.87958 33.037C3.42974 33.6855 2.15987 34.4452 1.02 35.2914M23.4576 525.092C67.2728 515.265 120.257 494.797 151.064 500.973C165.482 503.864 178.301 513.795 190.699 525.988M222.136 1C203.778 22.71 186.41 47.0698 164.452 51.4735C125.086 59.367 41.4256 14.0013 1.05999 19.7577M361.291 525.994C373.689 513.802 386.498 503.87 400.926 500.979C431.733 494.803 484.707 515.265 528.532 525.098M379.619 525.994C388.268 519.354 397.277 514.407 406.976 512.461C429.413 507.959 462.97 516.81 496.686 525.994M344.713 525.994C360.211 508.397 375.759 491.956 394.237 488.25C430.083 481.061 499.076 513.703 544.241 518.347M55.3141 525.994C89.0404 516.81 122.587 507.965 145.024 512.461C154.713 514.407 163.732 519.354 172.381 525.994M550.97 334.408C511.544 334.865 456.07 330.227 445.252 339.417C428.573 353.573 493.626 418.697 470.709 428.993C448.021 439.191 367.92 380.941 340.663 386.407C314.366 391.682 305.147 468.072 276 468.072C246.853 468.072 237.634 391.682 211.337 386.407C184.08 380.941 103.979 439.191 81.2912 428.993C58.3737 418.691 123.427 353.567 106.748 339.417C95.9296 330.233 40.4557 334.865 1.03 334.408M550.97 328.466C514.494 331.048 439.542 321.512 427.723 331.548C412.385 344.568 479.048 408.692 457.98 418.166C437.112 427.548 359.041 368.65 333.974 373.678C309.786 378.526 302.817 454.687 276.01 454.687C249.203 454.687 242.234 378.526 218.046 373.678C192.979 368.65 114.908 427.548 94.0398 418.166C72.9621 408.692 139.635 344.568 124.297 331.548C112.478 321.518 37.526 331.048 1.04999 328.466M550.99 340.208C514.194 340.337 472.659 338.911 462.8 347.28C444.792 362.566 508.215 428.691 483.467 439.821C458.96 450.839 376.829 393.232 347.382 399.137C318.975 404.831 307.507 481.45 276.02 481.45C244.533 481.45 233.065 404.831 204.658 399.137C175.221 393.232 93.0799 450.839 68.5726 439.821C43.8253 428.697 107.248 362.573 89.2404 347.28C79.3814 338.911 37.846 340.331 1.04999 340.208M315.516 525.994C337.143 502.375 355.591 467.855 380.869 462.791C421.234 454.693 513.534 509.064 547.14 493.957C548.59 493.308 549.86 492.549 551 491.702M551 371.479C542.941 373.282 536.622 375.611 532.922 378.749C509.565 398.575 566.508 468.702 534.412 483.13C502.625 497.416 412.365 442.402 374.179 450.061C345.112 455.892 326.234 505.365 299.507 526M1.02 173.575C25.4673 172.432 46.685 170.326 54.1542 163.977C74.8419 146.417 14.6485 78.2914 43.0754 65.5125C71.2223 52.8632 157.423 109.173 191.229 102.392C223.856 95.8509 239.824 18.7757 275.98 18.7757C312.136 18.7757 328.114 95.8509 360.731 102.392C394.547 109.173 480.748 52.8632 508.885 65.5125C537.311 78.2914 477.118 146.417 497.806 163.977C505.285 170.32 526.493 172.432 550.94 173.575M252.513 525.994C225.785 505.365 206.908 455.886 177.841 450.055C139.655 442.396 49.3847 497.416 17.6082 483.123C-14.4883 468.695 42.4555 398.569 19.098 378.742C15.3984 375.605 9.07912 373.276 1.02 371.473M550.96 283.607C537.841 276.381 528.462 269.494 528.462 263.497C528.462 257.5 537.841 250.607 550.96 243.387M550.96 346.44C519.533 346.946 489.067 347.7 480.298 355.148C460.95 371.572 522.753 438.697 496.166 450.648C469.839 462.482 385.668 405.523 354.041 411.866C323.525 417.987 309.806 494.834 275.98 494.834C242.154 494.834 228.435 417.987 197.919 411.866C166.292 405.523 82.1211 462.482 55.794 450.648C29.2069 438.697 91.0102 371.572 71.6623 355.148C62.8832 347.7 32.4266 346.946 1 346.44M550.94 353.419C526.493 354.562 505.275 356.668 497.806 363.017C477.118 380.577 537.311 448.702 508.885 461.481C480.738 474.131 394.537 417.82 360.731 424.602C328.104 431.143 312.136 508.218 275.98 508.218C239.824 508.218 223.846 431.143 191.229 424.602C157.413 417.82 71.2123 474.131 43.0754 461.481C14.6485 448.702 74.8419 380.577 54.1542 363.017C46.675 356.674 25.4673 354.562 1.02 353.419M550.96 361.523C534.472 363.227 521.203 365.914 515.354 370.88C493.326 389.576 551.9 458.696 521.633 472.302C491.666 485.773 403.436 430.111 367.44 437.332C332.704 444.299 314.486 521.602 275.99 521.602C237.494 521.602 219.276 444.299 184.54 437.332C148.544 430.111 60.3035 485.773 30.3468 472.302C0.0801003 458.696 58.6537 389.576 36.6261 370.88C30.7768 365.914 17.5082 363.227 1.02 361.523M175.161 263.497C175.161 252.713 58.8737 230.688 63.9931 220.954C69.2926 210.868 184.49 235.302 194.379 226.908C204.368 218.428 131.226 158.307 144.954 152.136C158.543 146.028 228.485 207.514 244.813 204.241C260.572 201.078 258.542 125.837 276 125.837C293.458 125.837 291.428 201.084 307.187 204.241C323.515 207.514 393.447 146.028 407.036 152.136C420.764 158.307 347.622 218.428 357.611 226.908C367.5 235.302 482.697 210.868 487.997 220.954C493.116 230.688 376.829 252.713 376.829 263.497C376.829 274.281 493.116 296.306 487.997 306.04C482.697 316.126 367.5 291.692 357.611 300.086C347.622 308.566 420.764 368.687 407.036 374.857C393.447 380.966 323.505 319.48 307.177 322.753C291.418 325.916 293.448 401.156 275.99 401.156C258.532 401.156 260.562 325.909 244.803 322.753C228.475 319.48 158.543 380.966 144.954 374.857C131.226 368.687 204.368 308.566 194.379 300.086C184.49 291.692 69.2926 316.126 63.9931 306.04C58.8737 296.306 175.161 274.281 175.161 263.497V263.497ZM110.168 263.497C110.168 248.383 -5.00934 222.183 2.15987 208.545C9.58906 194.408 127.926 215.08 141.785 203.308C155.783 191.425 87.5006 128.302 106.738 119.655C125.786 111.094 201.818 170.635 224.706 166.046C246.783 161.617 251.503 85.6846 275.98 85.6846C300.457 85.6846 305.167 161.617 327.254 166.046C350.142 170.635 426.174 111.088 445.222 119.655C464.459 128.302 396.177 191.425 410.175 203.308C424.034 215.074 542.371 194.408 549.81 208.545C556.979 222.183 441.802 248.377 441.802 263.497C441.802 278.617 556.979 304.811 549.81 318.448C542.381 332.586 424.044 311.914 410.185 323.686C396.187 335.569 464.469 398.692 445.232 407.339C426.184 415.9 350.152 356.359 327.264 360.948C305.187 365.377 300.467 441.309 275.99 441.309C251.513 441.309 246.803 365.377 224.716 360.948C201.828 356.359 125.796 415.906 106.748 407.339C87.5106 398.692 155.793 335.569 141.795 323.686C127.936 311.92 9.59906 332.586 2.15987 318.448C-5.00934 304.811 110.168 278.617 110.168 263.497V263.497ZM218.496 263.497C218.496 255.597 101.469 236.352 105.219 229.23C109.098 221.843 222.196 248.791 229.445 242.645C236.764 236.438 160.383 178.312 170.432 173.797C180.38 169.325 246.253 232.102 258.212 229.706C269.751 227.39 263.221 152.606 276 152.606C288.779 152.606 282.249 227.396 293.788 229.706C305.747 232.102 371.61 169.325 381.568 173.797C391.617 178.318 315.236 236.438 322.555 242.645C329.794 248.791 442.892 221.843 446.781 229.23C450.531 236.358 333.504 255.603 333.504 263.497C333.504 271.39 450.531 290.642 446.781 297.764C442.902 305.151 329.804 278.203 322.555 284.348C315.236 290.556 391.617 348.682 381.568 353.197C371.62 357.668 305.747 294.892 293.788 297.288C282.249 299.604 288.779 374.388 276 374.388C263.221 374.388 269.751 299.598 258.212 297.288C246.253 294.892 180.39 357.668 170.432 353.197C160.383 348.676 236.764 290.556 229.445 284.348C222.206 278.203 109.108 305.151 105.219 297.764C101.469 290.636 218.496 271.39 218.496 263.497V263.497ZM196.829 263.497C196.829 254.158 80.1714 233.523 84.6009 225.092C89.1904 216.359 203.338 242.046 211.907 234.777C220.556 227.433 145.794 168.312 157.683 162.964C169.452 157.671 237.354 219.805 251.503 216.97C265.151 214.234 260.872 139.215 275.99 139.215C291.108 139.215 286.829 214.234 300.477 216.97C314.616 219.805 382.518 157.671 394.297 162.964C406.186 168.306 331.424 227.433 340.073 234.777C348.642 242.046 462.79 216.359 467.379 225.092C471.809 233.523 355.151 254.158 355.151 263.497C355.151 272.836 471.809 293.471 467.379 301.902C462.79 310.635 348.642 284.948 340.073 292.217C331.424 299.561 406.186 358.681 394.297 364.03C382.528 369.323 314.626 307.189 300.477 310.024C286.829 312.76 291.108 387.778 275.99 387.778C260.872 387.778 265.151 312.76 251.503 310.024C237.364 307.189 169.462 369.323 157.683 364.03C145.794 358.688 220.556 299.561 211.907 292.217C203.338 284.948 89.1904 310.635 84.6009 301.902C80.1714 293.471 196.829 272.836 196.829 263.497V263.497ZM153.503 263.497C153.503 251.268 37.586 227.853 43.3854 216.822C49.3947 205.383 165.642 228.563 176.851 219.045C188.18 209.429 116.657 148.307 132.216 141.309C147.624 134.379 219.596 195.223 238.104 191.511C255.962 187.929 256.182 112.453 275.98 112.453C295.778 112.453 295.998 187.929 313.856 191.511C332.374 195.223 404.336 134.385 419.744 141.309C435.313 148.307 363.78 209.429 375.109 219.045C386.328 228.563 502.565 205.383 508.575 216.822C514.374 227.853 398.457 251.274 398.457 263.497C398.457 275.72 514.374 299.141 508.575 310.172C502.565 321.611 386.318 298.431 375.109 307.948C363.78 317.565 435.303 378.687 419.744 385.685C404.336 392.615 332.364 331.771 313.856 335.483C295.998 339.065 295.778 414.541 275.98 414.541C256.182 414.541 255.962 339.065 238.104 335.483C219.586 331.771 147.624 392.608 132.216 385.685C116.647 378.687 188.18 317.565 176.851 307.948C165.632 298.431 49.3947 321.611 43.3854 310.172C37.586 299.141 153.503 275.72 153.503 263.497V263.497ZM131.836 263.497C131.836 249.822 16.2883 225.018 22.7776 212.684C29.4969 199.899 146.784 221.819 159.323 211.177C171.991 200.43 102.079 138.301 119.487 130.482C136.715 122.737 210.717 182.932 231.415 178.775C251.383 174.767 253.852 99.0688 275.99 99.0688C298.128 99.0688 300.597 174.773 320.565 178.775C341.263 182.926 415.265 122.737 432.493 130.476C449.891 138.301 379.989 200.424 392.657 211.17C405.196 221.812 522.483 199.892 529.202 212.678C535.692 225.012 420.144 249.822 420.144 263.491C420.144 277.159 535.692 301.97 529.202 314.304C522.483 327.089 405.196 305.169 392.657 315.811C379.989 326.558 449.901 388.686 432.493 396.506C415.265 404.251 341.263 344.056 320.565 348.212C300.597 352.221 298.128 427.919 275.99 427.919C253.852 427.919 251.383 352.215 231.415 348.212C210.717 344.062 136.715 404.251 119.487 396.512C102.089 388.686 171.991 326.564 159.323 315.817C146.784 305.175 29.4969 327.095 22.7776 314.31C16.2883 301.976 131.836 277.165 131.836 263.497V263.497ZM240.194 263.503C240.194 257.049 122.797 239.193 125.856 233.368C129.026 227.334 241.084 255.536 247.003 250.514C252.983 245.437 174.981 188.318 183.19 184.624C191.319 180.968 255.162 244.399 264.931 242.435C274.36 240.545 265.581 165.984 276.02 165.984C286.459 165.984 277.69 240.545 287.109 242.435C296.878 244.393 360.711 180.968 368.85 184.624C377.069 188.318 299.067 245.443 305.047 250.514C310.966 255.536 423.014 227.334 426.194 233.368C429.253 239.193 311.856 257.049 311.856 263.503C311.856 269.957 429.253 287.813 426.194 293.638C423.024 299.672 310.966 271.471 305.047 276.492C299.067 281.569 377.069 338.688 368.86 342.382C360.731 346.038 296.888 282.607 287.119 284.571C277.69 286.461 286.469 361.022 276.03 361.022C265.591 361.022 274.36 286.461 264.941 284.571C255.172 282.613 191.339 346.038 183.2 342.382C174.981 338.688 252.983 281.563 247.003 276.492C241.084 271.471 129.036 299.672 125.856 293.638C122.797 287.813 240.194 269.957 240.194 263.503V263.503Z" stroke="#FEF5AC" stroke-opacity="0.2" stroke-width="2" stroke-miterlimit="10"/>
</svg>
